HIERARCHY
ROOT Hips
{
	OFFSET -3.958830 18.904000 13.208200
	CHANNELS 6 Xposition Yposition Zposition Zrotation Yrotation Xrotation 
	JOINT LHipJoint
	{
		OFFSET 0.000000 0.000000 0.000000
		CHANNELS 3 Zrotation Yrotation Xrotation
		JOINT LeftUpLeg
		{
			OFFSET 1.800000 -1.400000 0.085000
			CHANNELS 3 Zrotation Yrotation Xrotation
			JOINT LeftLeg
			{
				OFFSET 2.215000 -6.000000 0.000000
				CHANNELS 3 Zrotation Yrotation Xrotation
				JOINT LeftFoot
				{
					OFFSET 2.500000 -6.900000 0.000000
					CHANNELS 3 Zrotation Yrotation Xrotation
					JOINT LeftToeBase
					{
						OFFSET 0.200000 -0.500000 1.950000
						CHANNELS 3 Zrotation Yrotation Xrotation
						End Site
						{
							OFFSET 0.000000 0.000000 0.000000
						}
					}
				}
			}
		}
	}
	JOINT RHipJoint
	{
		OFFSET 0.000000 0.000000 0.000000
		CHANNELS 3 Zrotation Yrotation Xrotation
		JOINT RightUpLeg
		{
			OFFSET -1.800000 -1.400000 0.085000
			CHANNELS 3 Zrotation Yrotation Xrotation
			JOINT RightLeg
			{
				OFFSET -2.215000 -6.000000 0.000000
				CHANNELS 3 Zrotation Yrotation Xrotation
				JOINT RightFoot
				{
					OFFSET -2.500000 -6.900000 0.000000
					CHANNELS 3 Zrotation Yrotation Xrotation
					JOINT RightToeBase
					{
						OFFSET -0.200000 -0.500000 1.950000
						CHANNELS 3 Zrotation Yrotation Xrotation
						End Site
						{
							OFFSET 0.000000 0.000000 0.000000
						}
					}
				}
			}
		}
	}
	JOINT LowerBack
	{
		OFFSET 0.000000 0.000000 0.000000
		CHANNELS 3 Zrotation Yrotation Xrotation
		JOINT Spine
		{
			OFFSET -0.087000 1.940000 -0.288900
			CHANNELS 3 Zrotation Yrotation Xrotation
			JOINT Spine1
			{
				OFFSET 0.000000 1.950000 0.060000
				CHANNELS 3 Zrotation Yrotation Xrotation
				JOINT Neck
				{
					OFFSET 0.000000 0.000000 0.000000
					CHANNELS 3 Zrotation Yrotation Xrotation
					JOINT Neck1
					{
						OFFSET 0.000000 1.600000 0.340000
						CHANNELS 3 Zrotation Yrotation Xrotation
						JOINT Head
						{
							OFFSET 0.000000 1.667000 -0.240000
							CHANNELS 3 Zrotation Yrotation Xrotation
							End Site
							{
								OFFSET 0.000000 0.000000 0.000000
							}
						}
					}
				}
				JOINT LeftShoulder
				{
					OFFSET 0.000000 0.000000 0.000000
					CHANNELS 3 Zrotation Yrotation Xrotation
					JOINT LeftArm
					{
						OFFSET 2.700000 1.550000 -0.730000
						CHANNELS 3 Zrotation Yrotation Xrotation
						JOINT LeftForeArm
						{
							OFFSET 5.450000 0.000000 0.000000
							CHANNELS 3 Zrotation Yrotation Xrotation
							JOINT LeftHand
							{
								OFFSET 3.450000 0.000000 0.000000
								CHANNELS 3 Zrotation Yrotation Xrotation
								JOINT LeftHandIndex1
								{
									OFFSET 0.750000 0.000000 0.000000
									CHANNELS 3 Zrotation Yrotation Xrotation
									End Site
									{
										OFFSET 0.000000 0.000000 0.000000
									}
								}
							}
						}
					}
				}
				JOINT RightShoulder
				{
					OFFSET 0.000000 0.000000 0.000000
					CHANNELS 3 Zrotation Yrotation Xrotation
					JOINT RightArm
					{
						OFFSET -2.700000 1.550000 -0.730000
						CHANNELS 3 Zrotation Yrotation Xrotation
						JOINT RightForeArm
						{
							OFFSET -5.450000 0.000000 0.000000
							CHANNELS 3 Zrotation Yrotation Xrotation
							JOINT RightHand
							{
								OFFSET -3.450000 0.000000 0.000000
								CHANNELS 3 Zrotation Yrotation Xrotation
								JOINT RightHandIndex1
								{
									OFFSET -0.750000 0.000000 0.000000
									CHANNELS 3 Zrotation Yrotation Xrotation
									End Site
									{
										OFFSET 0.000000 0.000000 0.000000
									}
								}
							}
						}
					}
				}
			}
		}
	}
}
MOTION
Frames: 14
Frame Time: 0.016667
0.540520 17.236010 -6.417580 -35.313073 25.805561 -34.553367 -14.884230 8.473976 2.016212 34.607175 2.811819 -28.736050 1.495470 13.007945 43.536644 -0.221840 9.843451 1.046771 -0.077760 -0.376840 -0.344200 19.821873 -6.487085 7.477032 -33.080584 20.344938 -86.630081 57.240093 -41.337993 52.814878 -2.837073 -14.674627 -0.045716 0.102380 0.971090 0.006040 -6.480937 2.753383 -10.596195 22.683135 -18.551092 64.102486 -21.995237 -2.835619 22.672342 -2.501271 -11.335949 -11.077591 -29.487784 10.403689 45.581014 11.349480 -10.437010 -5.294760 5.066939 -21.202386 5.170184 -4.009253 -12.053532 -13.683663 64.250256 -26.434503 -21.548893 -4.079312 2.513217 0.463760 0.326320 -0.480360 0.122630 1.554578 25.039629 6.738535 17.816392 24.133990 -13.656955 -61.931063 30.250939 -22.335074 1.804091 -1.278712 -0.630470 0.785760 0.541680 0.012800 
0.576160 17.180490 -6.400490 -33.578371 21.210684 -34.157744 -14.851965 8.445383 2.082702 36.934563 4.768429 -25.939288 0.393266 14.686240 44.137019 -0.181600 10.376687 0.772170 0.023230 -0.336740 -0.209020 19.858534 -6.421139 7.592362 -34.202470 23.206271 -88.457327 63.253486 -42.839662 50.320983 -2.973081 -14.758047 -0.135483 0.145390 0.832180 0.102790 -6.347140 2.749212 -10.590220 20.721592 -15.900004 65.969898 -22.046757 -1.146529 22.209443 -1.968256 -12.048822 -10.538965 -30.722541 10.506192 44.235795 9.693140 -10.088320 -8.036660 4.585312 -18.360805 4.625459 -6.713089 -12.954045 -12.447386 63.325972 -27.683070 -21.892000 -4.003319 2.563216 0.552510 0.267610 -0.398730 0.068120 0.564593 23.794264 5.872621 15.928776 24.494888 -13.048091 -57.251574 34.392282 -21.654118 1.726360 -1.224877 -0.594240 0.673670 0.529110 -0.056470 
0.606390 17.133710 -6.348730 -34.273314 21.185666 -34.445650 -14.889716 8.466989 2.240523 37.388107 5.056193 -27.206159 1.624066 14.693733 45.982832 -0.061538 10.487674 0.701305 0.121600 -0.238760 -0.164470 19.815341 -6.343985 7.486838 -33.286534 23.446595 -87.520552 64.577432 -44.572557 50.439724 -3.069756 -14.932859 -0.178684 0.178180 0.720970 0.076270 -6.221566 2.440117 -10.608329 20.859843 -15.387923 64.782384 -20.534421 -0.351865 21.262128 -2.016099 -11.687703 -11.127237 -31.672056 11.908233 45.643676 12.525780 -10.417770 -7.627790 2.772373 -18.601585 4.940587 -11.461104 -14.995796 -11.366108 59.801033 -29.020170 -21.385076 -3.855078 2.670825 0.543500 0.173670 -0.366070 0.094870 2.131566 23.590533 5.928065 15.980944 22.183977 -13.205664 -51.508200 40.845426 -20.799952 1.662080 -1.142927 -0.527650 0.590300 0.446670 -0.055490 
0.689240 17.144320 -6.276690 -34.449033 21.528494 -36.080128 -14.910525 8.833237 2.086101 36.883523 5.056959 -25.886555 2.761815 14.202729 46.787348 0.187978 10.144781 0.857654 0.373600 0.173260 -0.023490 19.718690 -6.519079 7.316263 -31.328825 24.006637 -83.505814 62.484288 -47.859223 54.287007 -3.448649 -15.608301 -0.255907 0.284980 0.518720 0.039530 -6.109559 2.155711 -10.453015 21.846300 -15.359173 62.929534 -20.010577 0.263485 21.858536 -0.632419 -10.839537 -12.388671 -32.658278 14.158742 49.754781 10.661980 -8.145960 -7.993570 -0.535132 -20.209317 5.351525 -15.447000 -16.145360 -10.737400 52.525868 -29.529200 -18.610286 -3.640764 2.755776 0.477530 0.057550 -0.176860 0.227990 2.713052 24.416736 6.897533 19.348137 19.925623 -13.127877 -43.656894 40.653340 -17.307937 1.700364 -1.277776 -0.318970 0.554420 0.185040 0.004730 
0.785590 17.144180 -6.184600 -35.531118 24.386289 -36.936940 -14.984966 9.079017 1.896448 35.041613 4.565115 -26.992944 4.874146 13.056862 47.649528 0.227326 9.827270 0.986030 0.463830 0.326050 0.028800 19.624319 -6.356813 7.363214 -33.709829 20.812610 -81.531101 54.036151 -56.057215 66.776199 -3.974348 -17.574083 -0.609422 0.332390 0.454890 -0.031570 -5.980332 1.505718 -10.421019 22.557149 -15.599930 58.949994 -18.832527 -1.081490 21.138007 -0.053723 -10.283371 -13.500929 -34.938280 17.529838 52.902979 11.021960 -7.247890 -7.537270 -5.105469 -21.737207 6.283418 -21.642417 -14.967646 -10.299108 47.868705 -28.818520 -16.544935 -3.526963 2.755121 0.476790 -0.006820 -0.111740 0.287690 6.333876 24.778494 7.390918 24.281851 18.440031 -12.868315 -37.085009 42.551285 -15.144526 1.704789 -1.212591 -0.279970 0.592310 0.072750 0.029440 
0.869950 17.192690 -6.082560 -36.338189 28.176132 -38.451880 -15.125392 9.828446 1.801056 32.874333 3.224346 -26.810005 5.917316 11.478839 46.667934 0.133649 9.239782 1.130025 0.602270 0.460030 0.148400 19.334010 -6.482866 7.011994 -29.913374 19.717971 -73.109743 39.067152 -56.371652 80.917560 -4.385115 -19.201012 -0.956203 0.362980 0.298430 -0.024000 -5.545526 0.326085 -10.203753 20.335450 -14.600777 56.844056 -15.484008 -2.083272 19.809091 0.426177 -9.316920 -14.731094 -35.816108 19.960720 58.202121 12.115810 -6.617900 -8.666930 -10.556910 -23.004584 6.956867 -28.011712 -12.610415 -10.227109 42.454529 -27.149921 -14.144948 -3.369387 2.835730 0.582600 -0.128720 0.021290 0.311140 10.985326 25.502033 8.499407 28.811672 13.516658 -14.575931 -28.780953 44.736584 -12.453114 1.727116 -1.215138 -0.215050 0.541680 -0.026110 0.000200 
0.952730 17.264060 -5.929830 -36.856058 31.420799 -40.123474 -15.240660 10.548888 1.881402 32.261121 2.337433 -25.352259 5.221843 10.947914 45.018370 0.040019 8.821696 1.208005 0.744290 0.598700 0.305100 19.043937 -6.805166 6.455612 -24.842845 18.268398 -61.753796 28.554643 -53.211097 88.803010 -4.533298 -19.540697 -1.060051 0.396070 0.137160 -0.006780 -5.114762 -0.633795 -9.949843 17.481902 -12.800294 54.690135 -12.693460 -2.627216 16.476515 0.712950 -8.037168 -14.968395 -35.007707 22.627205 65.310760 13.690790 -4.698240 -10.917950 -17.760806 -22.035528 6.586157 -31.578341 -8.605421 -10.380628 35.765192 -27.143868 -11.712089 -3.224069 2.800759 0.737390 -0.255610 0.192470 0.314990 17.474942 24.152321 8.800991 32.824754 8.105082 -15.304618 -16.268675 44.106456 -7.612497 1.809038 -1.209947 -0.166030 0.523150 -0.114590 -0.049620 
1.048110 17.320140 -5.759170 -36.032805 32.123241 -39.532015 -15.327025 10.962343 2.213756 33.676900 2.643682 -23.493756 2.173753 12.301919 43.099548 -0.033973 8.847020 1.122490 0.786190 0.625350 0.445270 18.843512 -7.060117 5.945453 -20.402934 17.788878 -53.913212 18.000291 -48.618051 96.951769 -4.615221 -19.727998 -1.124277 0.389850 -0.020470 -0.033350 -4.651464 -1.318732 -9.809446 14.628564 -9.512767 50.803969 -10.724672 -1.359316 11.355112 1.585301 -6.945644 -14.533640 -32.562566 23.403058 74.211025 13.083140 -2.851140 -12.758220 -22.989065 -17.613999 4.892965 -36.826565 -4.470942 -10.623976 30.337724 -26.911183 -9.774390 -3.151383 2.630929 0.912900 -0.360600 0.329070 0.248300 20.576508 20.827134 8.883788 39.403443 2.748551 -14.211178 -10.059282 35.358816 -4.396961 1.935453 -1.062115 -0.187750 0.537100 -0.136660 -0.148120 
1.210460 17.335630 -5.547090 -35.428335 33.041929 -39.099080 -15.404949 11.405627 2.680332 35.351402 2.771386 -21.335230 -1.461033 13.771653 41.032548 -0.142992 9.046848 0.927921 0.771040 0.517600 0.594850 18.648849 -7.560814 5.170982 -16.081549 15.776847 -44.978473 6.504419 -40.603903 103.732264 -4.409530 -18.829327 -1.049846 0.314740 -0.192920 -0.005040 -4.205639 -1.843902 -9.600162 13.538407 -6.804167 46.366887 -9.161723 0.012301 3.310172 2.618659 -5.463026 -13.806608 -29.591399 23.760259 85.743028 13.327980 -1.941040 -13.828880 -26.169950 -10.592222 2.487128 -42.738132 1.600225 -11.651372 23.414988 -26.853870 -7.773147 -3.135027 2.441167 1.153040 -0.472320 0.464590 0.103810 21.330859 14.294164 8.339866 46.971852 -6.650932 -15.107546 -5.928469 27.593642 -2.322122 2.041345 -0.817687 -0.225130 0.494780 -0.078280 -0.292480 
1.379310 17.346010 -5.374170 -34.948655 34.570355 -36.300009 -15.481186 11.717991 3.369263 35.872148 2.132466 -22.295596 -5.454208 15.184691 39.749691 -0.122197 9.272541 0.804649 0.714360 0.381990 0.660240 18.464700 -8.056063 4.351420 -13.994873 12.294155 -37.681506 2.013870 -34.004821 101.513282 -4.015620 -17.235711 -0.776245 0.194660 -0.301950 -0.006300 -3.741227 -2.424373 -9.431747 11.959527 -5.467331 40.386491 -7.691566 -0.150715 -8.487695 3.374700 -4.737062 -12.234049 -28.540183 24.651435 93.365119 12.413310 -2.069740 -10.659500 -24.872299 1.295011 -0.378886 -48.181833 10.170413 -12.514291 14.568292 -23.628913 -4.836627 -3.156531 2.275666 1.282640 -0.546380 0.537300 0.035200 18.490906 2.786408 6.140788 51.780073 -15.710373 -16.349631 -1.162057 21.483079 -0.824972 2.207956 -0.589170 -0.236900 0.435830 -0.064600 -0.367080 
1.552670 17.393430 -5.185240 -32.778031 35.644896 -31.770703 -15.536921 12.111286 3.898238 34.895833 1.778188 -23.048384 -8.967792 16.203283 37.810203 -0.044339 9.345621 0.811359 0.601500 0.209810 0.631820 18.269660 -8.711917 3.601911 -13.196501 9.499855 -30.830206 0.028396 -27.484260 95.101947 -3.485164 -15.452669 -0.406450 0.069010 -0.282170 -0.017090 -3.358608 -2.688939 -9.264150 8.907071 -3.096768 31.912229 -5.770551 0.677799 -15.797503 3.668598 -4.203745 -11.671587 -26.370240 22.658097 97.064469 9.750110 -3.316990 -2.037760 -21.040245 10.275677 -1.616414 -49.896272 18.760977 -13.077731 6.747134 -16.488644 -2.788362 -3.275894 2.119070 1.265260 -0.511870 0.502260 0.017080 14.492970 -5.619213 5.646129 52.761739 -25.480408 -18.182016 1.898298 18.991349 -0.371704 2.296515 -0.460355 -0.251410 0.392890 -0.043500 -0.375080 
1.722800 17.428670 -4.975400 -29.826446 35.893222 -26.733449 -15.557648 12.489084 4.345151 33.730045 1.342986 -22.639605 -12.878617 16.868799 34.702467 -0.081064 9.369574 0.815850 0.471620 -0.042620 0.639160 18.078890 -9.545640 2.826752 -13.485498 6.524242 -23.829231 -1.114350 -21.347522 85.083968 -2.849347 -13.375401 0.028621 -0.054920 -0.274830 -0.020940 -3.146152 -2.559910 -9.094498 5.955344 -1.411162 22.892313 -5.790074 0.583653 -19.922950 4.814878 -3.663687 -12.534766 -24.326315 20.485376 97.027227 5.621720 -2.605130 4.891920 -13.323755 16.989022 -1.057552 -50.411700 27.137419 -14.004645 2.740520 -10.375441 -2.187821 -3.396839 1.939447 1.317110 -0.489110 0.448100 -0.041730 5.232794 -12.113967 6.614750 56.429383 -33.201463 -19.811031 2.238970 12.032832 -0.294403 2.435060 -0.228012 -0.335000 0.354120 0.027150 -0.447100 
1.862480 17.417870 -4.812220 -26.573125 36.669441 -23.604593 -15.519357 12.881682 4.386303 31.311432 0.736494 -20.654598 -15.058485 16.540599 32.116590 -0.078653 9.139540 0.934340 0.349430 -0.215910 0.523530 17.931936 -10.477833 2.156122 -15.908879 3.561430 -16.799153 -2.328878 -17.140469 75.499150 -2.295634 -11.640619 0.465053 -0.146680 -0.178160 -0.001840 -3.215933 -2.116199 -8.765206 3.716539 -0.450271 16.127926 -6.844915 -0.133892 -18.491963 5.068764 -4.029872 -13.099982 -25.318974 19.599168 92.132954 5.278100 -3.886500 8.580040 -6.577221 21.226089 -0.082831 -51.868756 33.036261 -16.023502 1.660744 -6.298203 -2.151424 -3.532585 1.844672 1.288980 -0.429630 0.359470 -0.047670 -1.735143 -16.097292 7.508846 59.079084 -40.816560 -23.079551 2.649390 10.286417 -0.520786 2.464323 -0.046505 -0.369760 0.326310 0.108210 -0.429630 
1.976330 17.416600 -4.677010 -24.057605 37.453542 -22.569007 -15.477388 13.324472 4.091966 28.610081 0.524030 -17.666577 -14.468402 15.551716 30.866373 -0.141885 8.817264 1.104937 0.189250 -0.418980 0.369830 17.820887 -11.284136 1.630736 -18.181650 1.160589 -8.733471 -3.095855 -14.052237 65.238932 -1.764243 -10.050936 0.939162 -0.220270 -0.009060 -0.016430 -3.322591 -1.774289 -8.225920 2.223340 0.130877 11.198542 -7.897548 -0.522985 -15.252390 4.545844 -4.875598 -12.084622 -27.248220 20.311168 85.629058 7.999530 -4.788390 11.098740 -2.483442 25.211255 0.286579 -52.327604 38.175660 -19.149458 1.051634 -9.928824 -2.584963 -3.626349 1.810431 1.249830 -0.334250 0.214900 -0.061530 -5.008676 -19.795665 7.654301 57.809959 -48.867678 -26.852886 10.883387 15.702038 -0.921372 2.227388 0.015809 -0.465710 0.349150 0.224340 -0.416830 
